# xmcd CD database file
#
# Track frame offsets:
#	182
#	15355
#	45160
#	64235
#	79797
#	90705
#	139515
#	161132
#	171177
#	188820
#	206072
#
# Disc length: 2888 seconds
#
# Revision: 0
# Processed by: cddbd v1.5.1PL2 Copyright (c) Steve Scherf et al.
# Submitted via: CDex 1.51
#
DISCID=880b460b
DTITLE=Steckar tubapack - Tubakoustic
DYEAR=1989
DGENRE=Jazz
TTITLE0=It's not tomorrow the day before
TTITLE1=Tubapack story
TTITLE2=Parle a Monk, Mingus est malade
TTITLE3=Steckalypso
TTITLE4=In a sentimental mood
TTITLE5=Suite de suite a suivre
TTITLE6=Tubach
TTITLE7=Tessy steps
TTITLE8=Caravan
TTITLE9=Vendresi 13
TTITLE10=La biguine a papy
EXTD=YEAR: 1989
EXTT0=
EXTT1=
EXTT2=
EXTT3=
EXTT4=
EXTT5=
EXTT6=
EXTT7=
EXTT8=
EXTT9=
EXTT10=
PLAYORDER=
